<?xml version="1.0" encoding="UTF-8" standalone="no"?>
<!-- Created with Inkscape (http://www.inkscape.org/) -->

<svg
   xmlns:dc="http://purl.org/dc/elements/1.1/"
   xmlns:cc="http://creativecommons.org/ns#"
   xmlns:rdf="http://www.w3.org/1999/02/22-rdf-syntax-ns#"
   xmlns:svg="http://www.w3.org/2000/svg"
   xmlns="http://www.w3.org/2000/svg"
   xmlns:sodipodi="http://sodipodi.sourceforge.net/DTD/sodipodi-0.dtd"
   xmlns:inkscape="http://www.inkscape.org/namespaces/inkscape"
   width="144.49777mm"
   height="144.49777mm"
   viewBox="0 0 511.99998 511.99998"
   id="svg2"
   version="1.1"
   inkscape:version="0.91 r13725"
   sodipodi:docname="grain.svg">
  <defs
     id="defs4" />
  <sodipodi:namedview
     id="base"
     pagecolor="#ffffff"
     bordercolor="#666666"
     borderopacity="1.0"
     inkscape:pageopacity="0.0"
     inkscape:pageshadow="2"
     inkscape:zoom="0.49497475"
     inkscape:cx="228.11969"
     inkscape:cy="331.24401"
     inkscape:document-units="px"
     inkscape:current-layer="g4213"
     showgrid="false"
     fit-margin-top="0"
     fit-margin-left="0"
     fit-margin-right="0"
     fit-margin-bottom="0"
     inkscape:window-width="1858"
     inkscape:window-height="1057"
     inkscape:window-x="-8"
     inkscape:window-y="-8"
     inkscape:window-maximized="1" />
  <metadata
     id="metadata7">
    <rdf:RDF>
      <cc:Work
         rdf:about="">
        <dc:format>image/svg+xml</dc:format>
        <dc:type
           rdf:resource="http://purl.org/dc/dcmitype/StillImage" />
        <dc:title></dc:title>
      </cc:Work>
    </rdf:RDF>
  </metadata>
  <g
     inkscape:label="Layer 1"
     inkscape:groupmode="layer"
     id="layer1"
     transform="translate(-92.571426,-515.64795)">
    <g
       id="g4213"
       transform="translate(-75.714286,-87.142857)">
      <path
         style="fill:#fdcb00"
         d="m 419.28572,1092.5766 0,-21.5001 10.5,0 10.5,0 0,21.5001 0,21.5 -10.5,0 -10.5,0 0,-21.5 z m -21.3822,-44.3 c -16.43521,-8.6351 -31.74038,-17.3256 -34.01149,-19.3124 -2.27111,-1.9867 -6.59912,-4.8636 -9.6178,-6.393 -19.03097,-9.6419 -27.78112,-18.9392 -34.30146,-36.44658 -1.87832,-5.04335 -2.10166,-8.25468 -2.4549,-35.2981 -0.27842,-21.31541 -0.0748,-29.75 0.71826,-29.75 1.99989,0 74.4305,39.0988 79.56818,42.95174 10.02484,7.51798 17.31407,19.69174 20.16681,33.68061 0.93926,4.60583 2.73959,9.54423 4.4785,12.28483 5.6078,8.838 6.8361,15.2504 6.8361,35.6882 0,10.117 -0.3375,18.3721 -0.75,18.3447 -0.4125,-0.027 -14.19699,-7.115 -30.6322,-15.75 z m -46.9494,-82.20008 c 0.33821,0 8.76368,4.33814 18.72326,9.64032 22.78725,12.13122 22.92534,12.19071 18.10834,7.80092 -2.2,-2.00489 -13.9,-8.93516 -26,-15.40062 l -22,-11.75537 -0.2863,9.9766 c -0.3542,12.34288 1.30249,18.64368 6.49936,24.71864 l 3.78694,4.42679 0.27673,-14.70364 c 0.15221,-8.087 0.55345,-14.70364 0.89167,-14.70364 z m 89.3316,62.28548 c 0,-30.83962 0.52863,-34.74332 6.26791,-46.28548 2.06757,-4.15806 5.75418,-9.02776 10.23209,-13.51571 6.64223,-6.65714 8.9454,-8.0499 45.06289,-27.25 20.93459,-11.12886 38.37209,-20.23429 38.75,-20.23429 0.37791,0 0.68711,8.1 0.68711,18 0,16.46335 0.54428,20.16443 2.5,17 1.9806,-3.20468 2.5,0.64542 2.5,18.53155 0,21.67497 -1.12859,27.43463 -7.06701,36.06583 -5.2593,7.6442 -11.0286,11.4534 -41.4442,27.3642 l -29.98879,15.6875 -0.2999,-5.3246 c -0.16495,-2.9284 -0.77478,-5.3245 -1.35518,-5.3245 -0.5804,0 -6.63294,2.959 -13.4501,6.5754 l -12.39482,6.5755 0,-27.8654 z m 25.30627,-9.5355 c 0.92869,-0.6875 2.38375,-3.95 3.23347,-7.25 1.95418,-7.5893 6.75381,-15.65561 12.16961,-20.45235 2.31514,-2.05051 12.10238,-7.96258 21.74941,-13.13792 l 17.54007,-9.40971 5.8e-4,-6.27568 5.9e-4,-6.27568 -3.25,1.6749 c -24.69934,12.72892 -42.91894,23.16227 -46.44189,26.59467 -6.22158,6.06167 -8.34915,11.92446 -9.03326,24.89227 -0.48209,9.1384 -0.3399,10.8895 0.88421,10.8895 0.80227,0 2.21852,-0.5625 3.14721,-1.25 z m -66.67997,-76.73259 c -17.0261,-8.90409 -32.02275,-17.4346 -34.87074,-19.83546 -2.74838,-2.31687 -9.10522,-6.31966 -14.12631,-8.89507 -11.51204,-5.90476 -20.56195,-14.62794 -25.96705,-25.02959 -5.83324,-11.22554 -6.62496,-16.88593 -6.64484,-47.50727 -0.01,-14.7125 0.28256,-26.75 0.64913,-26.75 0.36657,0 17.80407,9.10142 38.75,20.22537 36.88252,19.58755 38.32129,20.46267 45.62357,27.75 8.81966,8.80161 13.28131,17.00763 15.6483,28.7809 0.9908,4.92818 2.77403,9.74348 4.90448,13.24373 5.41982,8.90456 6.49327,15.10262 6.18024,35.68458 l -0.27308,17.95576 -29.8737,-15.62295 z m -48.27794,-83.01739 c 0.16218,0 9.03765,4.67878 19.72326,10.39729 10.68561,5.71851 19.65338,10.17461 19.92838,9.90245 1.21923,-1.20664 -7.39079,-6.63657 -27.8301,-17.5511 -12.10071,-6.46175 -22.26424,-11.74864 -22.5856,-11.74864 -0.32137,0 -0.5843,4.72017 -0.5843,10.48927 0,12.22107 1.963,18.81249 7.21847,24.23842 l 3.28153,3.38797 0.27673,-14.55783 c 0.15221,-8.00681 0.40944,-14.55783 0.57163,-14.55783 z m 89.65164,62.2101 c 0,-30.39911 0.51818,-34.35068 5.90349,-45.01891 3.95759,-7.83996 9.88528,-15.1406 15.74152,-19.38756 3.95309,-2.86679 77.628,-42.80363 78.96352,-42.80363 0.21531,0 0.39147,8.1 0.39147,18 0,9.9 0.25458,18 0.56574,18 0.31116,0 1.43616,-0.46583 2.5,-1.03518 1.8815,-1.00695 1.93426,-0.50518 1.93426,18.39466 0,16.65478 -0.28787,20.36187 -2.01556,25.95549 -2.31971,7.51034 -7.69759,15.18317 -14.06185,20.06256 -2.43242,1.86491 -17.47259,10.1813 -33.42259,18.48087 l -29,15.09013 -0.2999,-5.47427 c -0.16495,-3.01084 -0.5719,-5.47426 -0.90434,-5.47426 -0.33243,0 -6.20828,2.925 -13.05744,6.5 -6.84916,3.575 -12.62971,6.5 -12.84567,6.5 -0.21596,0 -0.39265,-12.50546 -0.39265,-27.7899 z m 27.55487,-12.97829 c 1.03441,-4.84005 3.71129,-11.63512 6.06238,-15.38888 5.11719,-8.17019 10.31636,-11.8869 34.63275,-24.75781 l 11.75,-6.2194 0,-6.33593 0,-6.33593 -23.16241,12.37158 c -12.73933,6.80437 -24.47948,13.62325 -26.08922,15.15307 -6.76941,6.43333 -9.74837,15.59807 -9.74837,29.99083 l 0,7.34202 2.98551,-1.54387 c 1.82832,-0.94546 3.21181,-2.60273 3.56936,-4.27568 z m -69.81804,-67.91891 c -16.36975,-8.57117 -31.66975,-17.23395 -34,-19.25062 -2.33026,-2.01666 -8.72494,-6.11818 -14.21041,-9.11447 -15.45583,-8.44235 -23.53031,-17.4597 -29.39568,-32.82824 -2.46157,-6.44986 -2.53636,-7.39724 -2.91714,-36.95217 -0.37616,-29.19694 -0.32195,-30.29606 1.44781,-29.35683 46.69197,24.78004 74.83346,40.1327 78.54707,42.85156 9.8277,7.19521 17.65421,20.12427 20.43336,33.75502 0.97986,4.80587 2.75694,9.71812 4.52206,12.5 5.6078,8.83805 6.8361,15.25047 6.8361,35.68819 0,10.11706 -0.3375,18.37145 -0.75,18.34309 -0.4125,-0.0284 -14.14343,-7.06435 -30.51317,-15.63553 z m -47.06843,-82.3129 c 0.33821,0 8.76368,4.33814 18.72326,9.64032 22.80392,12.1401 22.92064,12.19026 18.10834,7.78205 -2.2,-2.01526 -13.9,-8.94105 -26,-15.39064 l -22,-11.72652 -0.2863,9.96662 c -0.35425,12.33215 1.30367,18.63509 6.49936,24.70866 l 3.78694,4.42679 0.27673,-14.70364 c 0.15221,-8.087 0.55345,-14.70364 0.89167,-14.70364 z m 89.3316,62.27648 c 0,-30.8298 0.52893,-34.73491 6.26791,-46.27648 2.06757,-4.15806 5.75418,-9.02776 10.23209,-13.51571 6.64223,-6.65714 8.9454,-8.0499 45.06289,-27.25 20.93459,-11.12886 38.37209,-20.23429 38.75,-20.23429 0.37791,0 0.68711,7.84844 0.68711,17.44098 0,15.79081 0.66999,20.52003 2.48992,17.57533 2.1873,-3.53912 2.63204,0.33189 2.33122,20.29073 l -0.32114,21.30704 -3.7657,7.61421 c -5.88142,11.89216 -9.65198,14.68366 -44.2343,32.74854 l -30,15.67119 -0.29877,-5.86462 -0.29877,-5.86463 -13.45123,7.107 -13.45123,7.10699 0,-27.85628 z m 25.30627,-9.52648 c 0.92869,-0.6875 2.38375,-3.95 3.23347,-7.25 1.95418,-7.58931 6.75381,-15.65563 12.16961,-20.45237 2.31514,-2.05051 12.10238,-7.96258 21.74941,-13.13792 l 17.54007,-9.40971 5.8e-4,-6.27568 5.9e-4,-6.27568 -3.25,1.6749 c -24.69934,12.72892 -42.91894,23.16227 -46.44189,26.59467 -6.22158,6.06167 -8.34915,11.92446 -9.03326,24.89231 -0.48209,9.13833 -0.3399,10.88948 0.88421,10.88948 0.80227,0 2.21852,-0.5625 3.14721,-1.25 z m -29.17518,-49.93605 -3.36891,-5.15012 -1.69408,2.24589 c -1.36661,1.81176 -1.90263,1.98922 -2.77304,0.91808 -0.59343,-0.73029 -8.33104,-12.76 -17.19467,-26.73269 -17.10161,-26.95907 -19.38979,-31.92323 -20.60953,-44.7119 -0.80728,-8.46413 1.48376,-20.54578 5.33868,-28.15319 2.53139,-4.99554 33.19842,-49.55786 33.71799,-48.99569 3.06627,3.31761 32.36275,46.71516 33.93296,50.26567 3.82103,8.63999 4.3852,13.25287 4.34172,35.5 -0.034,17.37711 -0.36969,22.55554 -1.75081,27.00439 -1.49544,4.81715 -24.67326,43.02389 -26.0714,42.97659 -0.275,-0.009 -2.01601,-2.33447 -3.86891,-5.16703 z m -20.53099,-69.06395 c 0.9083,-1.7875 6.09486,-9.63081 11.52568,-17.42958 5.43082,-7.79877 9.87422,-14.55478 9.87422,-15.01335 0,-1.69992 -7.12597,-11.34725 -7.98806,-10.81445 -0.49193,0.30403 -3.95018,4.93007 -7.685,10.28008 -7.37366,10.56255 -10.24346,17.28418 -10.29429,24.11128 -0.0288,3.86032 1.74283,12.11602 2.59996,12.11602 0.17382,0 1.05919,-1.4625 1.96749,-3.25 z"
         id="path4225"
         inkscape:connector-curvature="0" />
      <path
         style="fill:#986501"
         d="m 418.57143,1092.3623 0,-21.0001 10.5,0 10.5,0 0,21.0001 0,21 -10.5,0 -10.5,0 0,-21 z m -25,-49.834 c -56.46792,-29.3577 -60.33697,-31.9245 -68.28208,-45.2993 -7.27116,-12.24029 -7.79043,-15.57177 -7.4864,-48.03115 l 0.26848,-28.66439 38,20.19425 c 35.63825,18.93915 38.44034,20.62746 45.08492,27.16439 5.10748,5.02472 8.12215,9.0762 10.80113,14.51588 5.598,11.36673 6.70316,19.80032 6.38219,48.70342 l -0.26824,24.1545 -24.5,-12.7376 z m 3,-33.0071 c 0,-14.8459 -3.26169,-23.00231 -11.63148,-29.08654 -4.23441,-3.07811 -44.98942,-25.07243 -46.45868,-25.07243 -1.47674,0 -1.03892,17.08425 0.59898,23.37254 2.2418,8.60686 6.35622,13.89314 14.26453,18.32732 10.46146,5.86571 41.63947,22.19901 42.47665,22.25241 0.4125,0.026 0.75,-4.3808 0.75,-9.7933 z m 43.22826,16.091 c 0.44137,-32.63858 1.10348,-36.26438 8.79546,-48.16538 7.70689,-11.92405 10.67849,-13.97619 52.66731,-36.37125 l 38.80897,-20.69905 0.26565,28.68311 c 0.22142,23.9082 -8.9e-4,29.59996 -1.33542,34.19058 -2.63104,9.05047 -7.07148,16.6942 -13.90816,23.94149 -5.51649,5.8478 -8.53652,7.9458 -20.73939,14.4078 -18.91565,10.0168 -63.58818,32.7627 -64.34531,32.7627 -0.32884,0 -0.42294,-12.9375 -0.20911,-28.75 z m 48.27174,-19.7555 c 20.25699,-10.46351 24.42741,-13.60282 28.13345,-21.17771 2.43562,-4.97822 2.8205,-7.0874 3.19135,-17.48885 0.23194,-6.50535 0.12976,-11.82791 -0.22706,-11.82791 -1.82202,0 -45.35908,23.96338 -48.64662,26.77575 -2.10607,1.80167 -5.09415,5.85167 -6.64017,9 -2.50592,5.10308 -2.84994,7.01406 -3.17029,17.61022 l -0.35934,11.8859 5.35934,-2.9981 c 2.94764,-1.649 13.00934,-6.9497 22.35934,-11.7793 z m -101,-73.34901 c -42.69255,-22.44282 -47.15987,-25.0369 -52.99125,-30.77078 -6.57224,-6.46236 -11.71003,-14.92418 -14.40821,-23.73002 -1.92378,-6.27846 -2.10054,-9.24473 -2.10054,-35.25 0,-15.61706 0.31551,-28.39466 0.70113,-28.39466 0.38562,0 17.82273,9.1125 38.74913,20.25 35.09544,18.67858 38.55248,20.75441 44.54887,26.75 3.96714,3.96661 7.77792,9.03634 9.77743,13.00756 6.03708,11.99022 6.46206,14.78465 6.95667,45.74244 0.24824,15.5375 0.0723,28.2311 -0.39094,28.208 -0.46326,-0.0231 -14.34229,-7.13874 -30.84229,-15.81254 z m 9.29712,-33.64546 c -0.4788,-11.69612 -3.05334,-18.00035 -9.6533,-23.63785 -3.45039,-2.94723 -46.80432,-26.86215 -48.69679,-26.86215 -0.39686,0 -0.50023,5.37419 -0.22971,11.94264 0.42809,10.39435 0.84602,12.66654 3.2237,17.52634 1.50252,3.07103 4.23762,6.80934 6.07801,8.30735 1.84039,1.49802 13.614,8.16832 26.16357,14.82289 26.14654,13.86453 23.77684,14.07974 23.11452,-2.09922 z m 43.39605,20.26946 c 0.3629,-28.43452 0.44673,-29.47205 2.93853,-36.3715 1.41074,-3.90613 4.2647,-9.66278 6.34213,-12.79258 6.88248,-10.36889 12.83331,-14.60194 43.52617,-30.9618 15.675,-8.35506 32.91154,-17.54977 38.30343,-20.43269 l 9.80343,-5.24167 -0.30343,30.76539 c -0.34651,35.13354 -0.63234,36.63444 -9.43579,49.54693 -8.15103,11.95558 -8.25658,12.02045 -76.70784,47.14287 l -14.8402,7.61452 0.37357,-29.26947 z m 34.57255,-12.61789 c 7.00386,-3.76664 17.00928,-9.04155 22.23428,-11.72203 18.09096,-9.28082 22.14828,-15.46593 22.81015,-34.77256 0.38668,-11.27964 0.31761,-11.79829 -1.45208,-10.90261 -1.02194,0.51724 -11.44821,6.03858 -23.16948,12.26965 -30.70099,16.32075 -33.31008,19.40704 -34.0063,40.22598 -0.21612,6.4625 -0.11347,11.75 0.22811,11.75 0.34157,0 6.35147,-3.0818 13.35532,-6.84843 z m -80.76572,-71.98546 c -56.46792,-29.35772 -60.33697,-31.9245 -68.28208,-45.29934 -7.27168,-12.24116 -7.79042,-15.57025 -7.4864,-48.04441 l 0.26848,-28.67765 38,20.20758 c 35.62351,18.94381 38.44308,20.64348 45.08492,27.17764 5.10753,5.02473 8.12212,9.07609 10.80113,14.51582 5.598,11.36673 6.70316,19.80034 6.38219,48.70341 l -0.26824,24.15452 -24.5,-12.73757 z m 2.83461,-34.91611 c -0.35351,-11.04569 -0.57437,-12.11789 -3.68467,-17.88746 -2.08946,-3.87592 -4.84543,-7.23311 -7.47928,-9.11088 -4.82727,-3.44155 -45.33553,-25.25166 -46.9003,-25.25166 -0.7015,0 -0.87978,3.84198 -0.53784,11.59046 0.47123,10.67822 0.77735,12.11186 3.88948,18.21498 2.35284,4.61409 4.59192,7.43649 7.378,9.30008 4.48795,3.00198 45.52347,24.75741 46.85533,24.84088 0.47043,0.0295 0.6861,-5.2339 0.47928,-11.6964 z m 43.39365,18 c 0.44137,-32.63861 1.10348,-36.26441 8.79546,-48.16541 7.70689,-11.92405 10.67849,-13.97619 52.66731,-36.37125 l 38.80897,-20.69905 0.26565,28.68311 c 0.22142,23.9082 -8.9e-4,29.59996 -1.33542,34.19058 -2.63104,9.05047 -7.07148,16.69424 -13.90816,23.94148 -5.51649,5.84777 -8.53652,7.94581 -20.73939,14.40784 -18.91565,10.01679 -63.58818,32.7627 -64.34531,32.7627 -0.32884,0 -0.42294,-12.9375 -0.20911,-28.75 z m 48.27174,-19.75554 c 20.25699,-10.4635 24.42741,-13.60281 28.13345,-21.1777 2.43562,-4.97822 2.8205,-7.0874 3.19135,-17.48885 0.23194,-6.50535 0.0919,-11.82791 -0.31129,-11.82791 -1.84589,0 -45.10542,23.86656 -48.5326,26.77575 -2.12246,1.80167 -5.12394,5.85167 -6.66996,9 -2.50592,5.10308 -2.84994,7.01406 -3.17029,17.6102 l -0.35934,11.88595 5.35934,-2.99815 c 2.94764,-1.64899 13.00934,-6.94967 22.35934,-11.77929 z m -75.24702,-63.77463 c -18.51002,-29.16409 -18.55037,-29.23742 -20.77881,-37.76417 -2.2699,-8.68539 -1.55738,-23.94467 1.5289,-32.74249 1.53537,-4.37679 6.90815,-13.03554 17.68432,-28.5 8.5134,-12.21724 16.0249,-22.78051 16.69222,-23.47392 0.96245,-1.00007 4.50216,3.43805 17.12005,21.46528 16.13174,23.04749 19.69633,29.63941 21.64034,40.019 1.42498,7.60832 0.31396,21.98813 -2.22268,28.76792 -1.69419,4.52811 -28.69399,48.46789 -33.93635,55.22838 -1.70309,2.19628 -1.89112,1.95233 -17.72799,-23 z m 23.12922,-25.07173 c 9.20655,-14.44186 10.98927,-18.7736 10.96701,-26.6481 -0.0109,-3.86195 -0.71147,-8.12342 -1.7261,-10.5 -2.24567,-5.26007 -15.67827,-25.58394 -16.55216,-25.04385 -1.80139,1.11332 -15.30739,21.96255 -16.59942,25.62454 -1.77057,5.01834 -1.91463,14.34978 -0.29333,19.00064 1.43989,4.13048 16.16454,27.91867 17.28137,27.91867 0.17786,0 3.29304,-4.65836 6.92263,-10.3519 z"
         id="path4219"
         inkscape:connector-curvature="0" />
      <path
         style="fill:#656513"
         d="m 2.8571398,945.93371 0,-21.00005 10.5000002,0 10.5,0 0,21.00005 0,20.99996 -10.5,0 -10.5000002,0 0,-20.99996 z M -32.14286,890.80781 c -17.875,-9.35653 -35.425,-18.74598 -39,-20.86542 -11.772176,-6.97916 -21.054546,-18.83519 -25.060406,-32.00873 -1.80346,-5.93077 -1.95304,-9.01024 -1.70807,-35.16438 l 0.26848,-28.66439 37.999996,20.19425 c 35.63825,18.93915 38.44034,20.62746 45.08492,27.16439 8.6768798,8.53629 13.83141982,18.24763 15.9263198,30.00577 1.90616,10.69876 2.09999,56.49222 0.23876,56.40738 -0.68749998,-0.0313 -15.8749998,-7.71233 -33.7499998,-17.06887 z m 12.99442,-28.12415 c -0.003,-5.6375 -0.45723,-11.87599 -1.00926,-13.86331 -1.42518,-5.1307 -5.86764,-11.36008 -10.50753,-14.73401 -4.30975,-3.13388 -45.075456,-25.15268 -46.567786,-25.15268 -1.47674,0 -1.03892,17.08425 0.59898,23.37254 1.705736,6.5488 6.018296,13.41112 10.184566,16.2061 3.49174,2.34247 45.52894,24.37581 46.55661,24.40214 0.4125,0.0106 0.74749,-4.59328 0.74442,-10.23078 z m 43.23384,16.5 c 0.44137,-32.63861 1.10348,-36.26441 8.79546,-48.16541 7.70688,-11.92404 10.6785,-13.9762 52.66731,-36.37129 l 38.80897,-20.69911 0.3088,27.24291 c 0.34575,30.50333 -0.11233,34.27821 -5.55086,45.7429 -2.62311,5.52964 -5.42308,9.35066 -10.65787,14.54437 -6.48615,6.43526 -9.0888,8.06977 -30.10007,18.9034 -12.65,6.52247 -29.82004,15.39001 -38.15564,19.70563 -8.3356,4.31563 -15.45922,7.8466 -15.83026,7.8466 -0.37104,0 -0.49967,-12.9375 -0.28584,-28.75 z m 58.58728,-24.96897 c 10.42821,-5.58963 14.6039,-9.23775 17.96017,-15.69101 2.34806,-4.51473 2.69149,-6.47455 3.0386,-17.34002 0.21524,-6.7375 0.10859,-12.25 -0.237,-12.25 -1.80751,0 -45.36099,23.98249 -48.62619,26.77575 -2.10607,1.80167 -5.09415,5.85167 -6.64017,9 -2.50497,5.10115 -2.84999,7.01568 -3.16964,17.58822 l -0.35869,11.86397 14.85869,-7.74485 c 8.17228,-4.25967 18.60068,-9.7506 23.17423,-12.20206 z M -17.64286,791.74931 c -63.608736,-33.47891 -64.781866,-34.24391 -72.751316,-47.44097 -7.04991,-11.67433 -7.74868,-16.00115 -7.74868,-47.98002 0,-15.61706 0.31551,-28.39466 0.70113,-28.39466 0.38562,0 17.82273,9.1125 38.749126,20.25 35.09544,18.67858 38.55248,20.75441 44.54887,26.75 3.96714,3.96661 7.7779198,9.03634 9.7774298,13.00756 6.03708,11.99022 6.46206,14.78465 6.95667,45.74244 0.24824,15.5375 0.0723,28.20856 -0.39094,28.15792 -0.46326,-0.0506 -9.39229,-4.59217 -19.8422898,-10.09227 z m -3.11756,-51.16959 c -2.94281,-8.85997 -8.87968,-13.54912 -34.05272,-26.89606 -12.18861,-6.4625 -22.485826,-11.75 -22.882686,-11.75 -0.39686,0 -0.50023,5.37419 -0.22971,11.94264 0.42717,10.37195 0.84873,12.67208 3.205356,17.48885 1.55246,3.17311 4.50342,7.0129 6.89676,8.97406 2.30078,1.88533 14.08264,8.60248 26.1819,14.92701 l 21.99866,11.49915 0.28521,-10.55181 c 0.2121,-7.84683 -0.1475,-11.85459 -1.40277,-15.63384 z m 44.81054,32.14288 c 0.36311,-28.45525 0.44676,-29.4911 2.93872,-36.39098 1.41074,-3.90613 4.2647,-9.66278 6.34213,-12.79258 7.21083,-10.86356 12.2407,-14.28121 53.02617,-36.02965 l 38,-20.26311 0.2676,27.59369 c 0.16183,16.68702 -0.15195,29.6173 -0.79385,32.7134 -1.42421,6.86941 -6.80916,17.81898 -11.59189,23.57051 -7.30569,8.78556 -9.13056,9.8572 -72.72225,42.70534 l -15.84039,8.18231 0.37376,-29.28893 z m 43.90681,-17.28894 c 32.36766,-16.69599 36.30669,-21.48224 35.68651,-43.36226 l -0.2863,-10.1007 -22.78076,12.12835 c -32.42416,17.26245 -34.8341,20.05644 -35.54048,41.20423 -0.25477,7.62713 -0.0404,11.73751 0.5997,11.5 0.5479,-0.20329 10.5925,-5.31962 22.32133,-11.36962 z M -32.14286,682.81393 c -17.875,-9.36456 -35.425,-18.75866 -39,-20.87577 -11.767366,-6.96865 -21.053696,-18.82817 -25.060406,-32.0045 -1.80353,-5.93102 -1.95305,-9.01033 -1.70807,-35.17764 l 0.26848,-28.67765 37.999996,20.20758 c 35.62351,18.94381 38.44308,20.64348 45.08492,27.17764 8.6768798,8.53621 13.83140982,18.24751 15.9263198,30.00571 1.90608,10.69833 2.09986,56.48715 0.23876,56.41773 -0.68749998,-0.0256 -15.8749998,-7.70853 -33.7499998,-17.0731 z m 12.85283,-30.17066 c -0.34342,-11.96261 -0.44463,-12.44181 -3.79503,-17.9685 -1.89321,-3.12297 -5.26821,-6.9797 -7.5,-8.5705 -4.74821,-3.3845 -45.244506,-25.17061 -46.787436,-25.17061 -0.70109,0 -0.88073,3.82043 -0.54131,11.5118 0.45768,10.37135 0.8242,12.15407 3.699696,17.99504 1.88735,3.83375 4.6328,7.58243 6.71804,9.17292 3.52387,2.68779 46.09347,25.26469 47.70604,25.30102 0.46905,0.0106 0.69405,-5.51145 0.5,-12.27117 z m 43.37543,18.54039 c 0.44137,-32.63861 1.10348,-36.26441 8.79546,-48.16541 7.70688,-11.92404 10.6785,-13.9762 52.66731,-36.37129 l 38.80897,-20.69911 0.3088,27.24291 c 0.20255,17.86961 -0.0872,29.13525 -0.84214,32.7429 -2.85641,13.65009 -13.20703,28.40261 -24.80962,35.36064 -6.23113,3.73679 -73.70488,38.63936 -74.69772,38.63936 -0.34091,0 -0.44489,-12.9375 -0.23106,-28.75 z m 61.27174,-26.48968 c 8.72526,-4.87464 11.97604,-7.90359 15.30473,-14.26032 2.31679,-4.42432 2.66329,-6.41041 3.00958,-17.25 0.21524,-6.7375 0.0707,-12.25 -0.32123,-12.25 -1.83136,0 -45.10788,23.88599 -48.51217,26.77575 -2.12246,1.80167 -5.12394,5.85167 -6.66996,9 -2.50499,5.10118 -2.84999,7.01565 -3.16965,17.5886 l -0.35871,11.86436 16.85871,-8.77882 c 9.27228,-4.82834 20.0087,-10.53865 23.8587,-12.68957 z M -2.8674302,587.68878 C -21.40165,558.48665 -21.44003,558.41692 -23.66869,549.88932 c -2.2699,-8.68539 -1.55738,-23.94467 1.5289,-32.74249 1.53537,-4.37679 6.90815,-13.03554 17.6843198,-28.5 8.5134,-12.21724 16.0249002,-22.78051 16.6922202,-23.47392 0.96245,-1.00007 4.50216,3.43805 17.12005,21.46528 16.1297,23.04459 19.69412,29.63561 21.64222,40.019 1.47989,7.88786 0.36195,20.81764 -2.46325,28.48915 -1.76026,4.77977 -24.69241,42.40633 -34.15603,56.04244 -1.06228,1.53064 -3.26824,-1.47508 -17.2471702,-23.5 z M 21.52596,560.87715 c 10.27759,-16.04568 12.1817,-23.40118 8.71313,-33.65854 -1.71623,-5.0753 -16.21371,-27.50696 -17.33124,-26.81629 -1.78614,1.1039 -15.2954002,21.97342 -16.5791802,25.61203 -1.73356,4.91343 -1.80923,15.10016 -0.14545,19.58059 1.79342,4.82956 16.0494702,27.37102 17.0934402,27.02791 0.50573,-0.16621 4.21792,-5.45177 8.2493,-11.7457 z"
         id="path4217"
         inkscape:connector-curvature="0" />
      <path
         style="fill:#323232"
         d="m 842.83127,966.69007 0,-21.00006 10.5,0 10.5,0 0,21.00006 0,20.99997 -10.5,0 -10.5,0 0,-20.99997 z m -39.99999,-57.88338 c -41.39751,-21.74395 -45.97478,-24.94381 -53.28208,-37.24822 -7.27144,-12.24402 -7.79042,-15.57378 -7.4864,-48.03284 l 0.26848,-28.66439 38,20.19425 c 35.79111,19.0204 38.4085,20.59942 45.02776,27.16439 4.05125,4.01802 8.37928,9.54585 10.2188,13.05158 5.70619,10.87479 6.25343,14.86779 6.25343,45.62865 0,15.28444 -0.3375,27.74793 -0.75,27.69664 -0.4125,-0.0513 -17.625,-8.95682 -38.24999,-19.79006 z m 18.76391,-26.0731 c -0.69103,-14.57921 -3.92143,-21.81503 -12.53262,-28.07205 -4.1399,-3.00813 -44.88138,-24.97153 -46.32145,-24.97153 -1.47674,0 -1.03892,17.08425 0.59898,23.37254 1.84218,7.07263 6.21973,13.65925 11.15697,16.78722 7.71722,4.88921 45.87418,24.5384 46.71907,24.05831 0.48667,-0.27654 0.65724,-5.30506 0.37905,-11.17449 z m 42.46434,17.20642 c 0.44137,-32.63861 1.10348,-36.26441 8.79546,-48.16541 7.70688,-11.92404 10.6785,-13.9762 52.66731,-36.37128 l 38.80897,-20.69908 0.2661,27.65571 c 0.29526,30.68574 -0.17319,34.28007 -6.02879,46.25782 -2.13945,4.37628 -5.56641,8.91113 -10.25647,13.57224 -6.74792,6.70628 -8.6431,7.82871 -45.16628,26.75 -20.96754,10.8625 -38.42707,19.75 -38.79894,19.75 -0.37188,0 -0.50119,-12.9375 -0.28736,-28.75 z m 65.87557,-28.83802 c 5.10324,-3.18971 10.52239,-9.86676 12.34189,-15.20671 1.47296,-4.3229 2.33202,-26.20527 1.02876,-26.20527 -1.73454,0 -45.37125,24.07924 -48.52336,26.77575 -2.10607,1.80167 -5.09415,5.85167 -6.64017,9 -2.50554,5.1023 -2.84996,7.01471 -3.17003,17.60137 l -0.35908,11.87712 20.85908,-10.79486 c 11.47249,-5.93718 22.48081,-11.80851 24.46291,-13.0474 z m -65.91149,-77.55873 c 0.36381,-28.52369 0.44688,-29.55396 2.93936,-36.45529 1.41074,-3.90613 4.2647,-9.66278 6.34213,-12.79258 7.21082,-10.86355 12.24071,-14.28121 53.02617,-36.02968 l 38,-20.26315 0.29825,26.59373 c 0.18815,16.77621 -0.11717,28.80872 -0.82707,32.59372 -2.36676,12.61912 -11.88448,27.25608 -22.37322,34.407 -2.25388,1.53663 -16.02296,8.98764 -30.59796,16.55781 -14.575,7.57016 -31.15346,16.23393 -36.84102,19.25281 l -10.34103,5.48888 0.37439,-29.35325 z m 44.46744,-17.60325 c 25.29934,-13.2223 29.90862,-16.80778 33.3166,-25.91641 1.73513,-4.63756 2.03938,-7.40774 1.80523,-16.43675 l -0.28161,-10.85917 -22.78076,12.12804 c -32.38458,17.24093 -34.8343,20.07304 -35.53695,41.08429 -0.21612,6.4625 -0.0806,11.75 0.30114,11.75 0.38174,0 10.8111,-5.2875 23.17635,-11.75 z m -104.65977,26.62732 c -20.075,-10.49386 -38.66742,-20.72171 -41.3165,-22.72854 -8.23157,-6.2359 -15.26069,-16.63794 -18.58576,-27.50412 -1.92012,-6.27486 -2.09774,-9.25962 -2.09774,-35.25 0,-15.61706 0.31551,-28.39466 0.70113,-28.39466 0.38562,0 17.82273,9.1125 38.74913,20.25 35.09543,18.67858 38.55247,20.75441 44.54886,26.75 6.97851,6.97757 12.03651,15.69156 14.51556,25.00756 1.11341,4.18406 1.4644,12.10288 1.47344,33.24244 0.007,15.2625 -0.32563,27.74034 -0.73813,27.72854 -0.4125,-0.0118 -17.175,-8.60735 -37.24999,-19.10122 z m 17.72689,-26.45714 c -0.67428,-13.69114 -3.10971,-19.95679 -10.15838,-26.13462 -3.66635,-3.21338 -47.00286,-27.28556 -49.12148,-27.28556 -0.39686,0 -0.50023,5.37419 -0.22971,11.94264 0.4268,10.36315 0.84979,12.67424 3.19822,17.47425 1.4885,3.04238 4.54759,7.10763 6.79799,9.03389 3.65995,3.13278 46.96634,26.49505 49.18506,26.5336 0.51289,0.009 0.65381,-4.95494 0.3283,-11.5642 z m -18.72689,-75.3035 c -41.39751,-21.74395 -45.97478,-24.94381 -53.28208,-37.24822 -7.27196,-12.24488 -7.79042,-15.57226 -7.4864,-48.0461 l 0.26848,-28.67765 38,20.20758 c 35.77673,19.0253 38.41116,20.61537 45.02776,27.17764 4.05132,4.01806 8.37925,9.54573 10.2188,13.05152 5.70619,10.87479 6.25343,14.86779 6.25343,45.62865 0,15.28444 -0.3375,27.74793 -0.75,27.69664 -0.4125,-0.0513 -17.625,-8.95682 -38.24999,-19.79006 z m 18.76391,-26.0731 c -0.69103,-14.57921 -3.92143,-21.81503 -12.53262,-28.07205 -4.37505,-3.17899 -44.92131,-24.97153 -46.46093,-24.97153 -0.70109,0 -0.88073,3.82043 -0.54131,11.5118 0.45961,10.41495 0.817,12.13943 3.75098,18.09919 2.3571,4.78795 4.46176,7.4481 7.7047,9.73821 6.30083,4.44953 46.63134,25.47619 47.70013,24.86887 0.48667,-0.27654 0.65724,-5.30506 0.37905,-11.17449 z m 42.46434,17.20642 c 0.44137,-32.63861 1.10348,-36.26441 8.79546,-48.16541 7.70688,-11.92404 10.6785,-13.9762 52.66731,-36.37128 l 38.80897,-20.69908 0.2661,27.65571 c 0.29526,30.68574 -0.17319,34.28007 -6.02879,46.25782 -2.13945,4.37628 -5.56641,8.91113 -10.25647,13.57224 -6.74792,6.70628 -8.6431,7.82871 -45.16628,26.75 -20.96754,10.8625 -38.42707,19.75 -38.79894,19.75 -0.37188,0 -0.50119,-12.9375 -0.28736,-28.75 z m 65.87557,-28.83802 c 5.38623,-3.36659 10.75478,-10.19678 12.4187,-15.7998 1.44521,-4.86655 2.14806,-25.61218 0.86773,-25.61218 -1.75829,0 -45.12097,23.98439 -48.40935,26.77575 -2.12246,1.80167 -5.12394,5.85167 -6.66996,9 -2.50554,5.1023 -2.84996,7.01471 -3.17003,17.60137 l -0.35908,11.87712 20.85908,-10.79486 c 11.47249,-5.93718 22.48081,-11.80851 24.46291,-13.0474 z M 837.1103,608.4508 c -18.5381,-29.20824 -18.57616,-29.2774 -20.80486,-37.80513 -2.2699,-8.68539 -1.55738,-23.94467 1.5289,-32.74249 1.53537,-4.37679 6.90815,-13.03554 17.68432,-28.5 8.5134,-12.21724 16.0249,-22.78051 16.69222,-23.47392 0.96245,-1.00007 4.50216,3.43805 17.12005,21.46528 8.85129,12.64588 16.9912,25.40273 18.35169,28.76075 5.46785,13.49592 5.23911,30.38946 -0.57825,42.70557 -2.15632,4.56519 -31.57223,52.1752 -33.72848,54.58994 -0.12808,0.14344 -7.4476,-11.10656 -16.26559,-25 z m 32.37778,-40.76079 c 2.69957,-6.46753 2.99981,-13.86641 0.81663,-20.12427 -1.65683,-4.74912 -16.38726,-27.04702 -17.43856,-26.39728 -1.77423,1.09653 -15.28604,21.98197 -16.56335,25.60224 -1.87252,5.3073 -1.88786,14.48785 -0.033,19.74511 0.7912,2.2425 4.90279,9.54544 9.13687,16.22877 l 7.69833,12.1515 7.04367,-10.85303 c 3.87403,-5.96917 8.07676,-13.32804 9.33941,-16.35304 z"
         id="path4215"
         inkscape:connector-curvature="0" />
    </g>
  </g>
</svg>
