<?xml version="1.0" encoding="UTF-8" standalone="no"?>
<!-- Created with Inkscape (http://www.inkscape.org/) -->

<svg
   xmlns:dc="http://purl.org/dc/elements/1.1/"
   xmlns:cc="http://creativecommons.org/ns#"
   xmlns:rdf="http://www.w3.org/1999/02/22-rdf-syntax-ns#"
   xmlns:svg="http://www.w3.org/2000/svg"
   xmlns="http://www.w3.org/2000/svg"
   xmlns:sodipodi="http://sodipodi.sourceforge.net/DTD/sodipodi-0.dtd"
   xmlns:inkscape="http://www.inkscape.org/namespaces/inkscape"
   width="288.99554mm"
   height="288.99554mm"
   viewBox="0 0 1024 1024"
   id="svg4229"
   version="1.1"
   inkscape:version="0.91 r13725"
   sodipodi:docname="technology.svg">
  <defs
     id="defs4231" />
  <sodipodi:namedview
     id="base"
     pagecolor="#ffffff"
     bordercolor="#666666"
     borderopacity="1.0"
     inkscape:pageopacity="0.0"
     inkscape:pageshadow="2"
     inkscape:zoom="0.35"
     inkscape:cx="-31.571432"
     inkscape:cy="477.71429"
     inkscape:document-units="px"
     inkscape:current-layer="layer1"
     showgrid="false"
     inkscape:window-width="1858"
     inkscape:window-height="1057"
     inkscape:window-x="-8"
     inkscape:window-y="-8"
     inkscape:window-maximized="1"
     fit-margin-top="0"
     fit-margin-left="0"
     fit-margin-right="0"
     fit-margin-bottom="0" />
  <metadata
     id="metadata4234">
    <rdf:RDF>
      <cc:Work
         rdf:about="">
        <dc:format>image/svg+xml</dc:format>
        <dc:type
           rdf:resource="http://purl.org/dc/dcmitype/StillImage" />
        <dc:title></dc:title>
      </cc:Work>
    </rdf:RDF>
  </metadata>
  <g
     inkscape:label="Layer 1"
     inkscape:groupmode="layer"
     id="layer1"
     transform="translate(94.85714,13.923507)">
    <path
       style="fill:#000000"
       d="m 439.05969,909.59193 c -2.31891,-1.26081 -3.07893,-3.37942 -7.42938,-20.70997 l -4.8462,-19.30547 -34.57063,-0.0272 c -37.38663,-0.0294 -47.5685,-0.99339 -74.95467,-7.09636 -9.43502,-2.10258 -11.59434,-2.30917 -12.61234,-1.20668 -0.67556,0.73163 -6.53633,9.58091 -13.02393,19.66505 -12.8434,19.96344 -14.00093,21.03525 -20.97968,19.42624 -2.54907,-0.58771 -19.95958,-11.34681 -47.99815,-29.66122 -24.19897,-15.80645 -44.84858,-29.49518 -45.88801,-30.41941 -1.98389,-1.76401 -4.61384,-7.16232 -4.61384,-9.47047 0,-0.74486 3.61666,-6.8843 8.03702,-13.64319 4.42037,-6.7589 8.13287,-12.61445 8.25,-13.01234 0.11714,-0.39789 -4.96159,-4.95557 -11.28606,-10.12817 -20.99632,-17.17227 -44.45508,-42.37077 -59.70841,-64.13648 l -5.4033,-7.71022 -13.19462,8.12463 c -24.95625,15.3669 -23.82903,14.79048 -28.92885,14.79325 -3.77399,0.002 -5.34171,-0.55521 -7.7293,-2.74743 -1.64729,-1.5125 -15.22946,-22.775 -30.18259,-47.25 -23.03644,-37.70561 -27.246877,-45.18707 -27.576365,-49 -0.666347,-7.71116 0.841085,-9.06565 30.166975,-27.10631 22.85103,-14.05747 26.57011,-16.6787 26.09746,-18.39369 -3.3415,-12.12463 -7.1818,-43.16466 -8.13614,-65.76216 l -0.70688,-16.73784 -12.59947,-0.002 c -14.69462,-0.002 -18.50867,-1.26825 -21.35681,-7.09143 -1.70366,-3.48322 -1.60685,-5.76339 3.16917,-74.64334 3.94983,-56.96477 5.25306,-71.68187 6.57375,-74.2358 2.90263,-5.61306 5.3725,-6.02788 35.8904,-6.02788 l 27.44022,0 6.42773,-11.75 c 7.90722,-14.45455 15.44728,-26.65481 24.56649,-39.75 l 6.96379,-10 -21.45958,-21.58086 C 88.0182,253.44602 85.94746,251.03809 85.4619,247.418 c -0.38563,-2.87508 0.0342,-5.09694 1.49637,-7.91914 1.18518,-2.28758 19.88455,-21.71092 44.85849,-46.59523 36.98645,-36.85372 43.32559,-42.76413 46.48916,-43.34499 2.01468,-0.36991 4.71468,-0.36104 6,0.0197 1.28532,0.38074 13.20157,11.5097 26.48056,24.73101 l 24.14361,24.03874 9.07537,-5.19343 c 20.44278,-11.69851 51.52525,-25.08936 72.54188,-31.25229 l 7.90449,-2.31791 -0.67185,-29.24477 c -0.75051,-32.668397 -0.64087,-33.419147 5.69254,-38.979957 1.99517,-1.75178 5.0997,-3.42067 6.89896,-3.70864 5.41546,-0.86676 112.53874,-2.841286 116.26112,-2.142963 4.33853,0.813913 9.36778,4.982653 11.14623,9.239093 1.03086,2.46719 1.36403,9.484417 1.36403,28.729297 0,28.6701 -0.88226,25.85883 8.5,27.08466 23.88898,3.1212 61.1178,14.61297 88.84957,27.42603 4.86726,2.24885 9.00961,4.08882 9.20522,4.08882 0.1956,0 6.94895,-8.57117 15.00742,-19.04705 8.05848,-10.47588 15.78359,-19.78864 17.1669,-20.69503 3.81332,-2.49858 13.01419,-2.78799 17.27089,-0.54326 1.925,1.01513 27.96725,21.14311 57.87167,44.72884 50.80696,40.07164 54.52696,43.21663 56.74023,47.96982 2.8378,6.09441 2.99791,9.98175 0.60237,14.62524 -0.98216,1.90379 -9.75448,13.24851 -19.49406,25.21048 l -17.70832,21.74905 4.47274,6.97793 c 11.36498,17.73052 27.34047,50.58323 32.96671,67.79421 l 1.72283,5.27023 38.43735,-0.0641 c 21.14054,-0.0353 38.92735,0.23868 39.52623,0.60881 0.59888,0.37014 1.98822,2.70609 3.08742,5.19101 2.00038,4.52217 3.59869,26.22918 9.89963,134.44897 1.29466,22.23613 0.91762,25.90865 -3.19696,31.13949 l -2.073,2.6354 -29.28073,0 c -16.1044,0 -31.97837,0.28196 -35.27549,0.62658 l -5.99476,0.62657 -1.7699,10.12343 c -2.40792,13.77273 -6.71749,31.1348 -11.07054,44.60013 -1.9913,6.15972 -3.4727,11.3091 -3.29199,11.44306 2.90755,2.15543 57.82636,49.39151 59.07857,50.81393 2.34244,2.66083 2.18628,6.29921 -0.51287,11.94911 -1.92791,4.03555 -82.40352,99.73408 -89.72933,106.70272 -2.78834,2.65239 -9.5983,6.05861 -12.18059,6.09251 -0.92003,0.0121 -10.95743,-7.8717 -22.30532,-17.5195 l -20.63252,-17.54145 -11.19469,10.67234 c -13.64678,13.01003 -33.02584,28.67573 -47.68747,38.54973 -6.01144,4.04846 -10.94729,8.00296 -10.96855,8.78777 -0.0213,0.78481 2.66134,12.10424 5.96134,25.15429 3.3,13.05005 6,24.91589 6,26.36853 0,3.13091 -3.66319,7.09375 -8.3786,9.06397 -1.8477,0.77202 -32.58676,8.84726 -68.30902,17.94498 -66.04148,16.81939 -72.01593,17.98167 -77.39555,15.05674 z m 25.89174,-144.48264 c 111.08894,-16.34367 201.49071,-110.2516 218.74535,-227.22925 2.20225,-14.93007 2.94447,-43.87372 1.50794,-58.80355 -6.78805,-70.54841 -40.80394,-130.06853 -95.16707,-166.52084 -50.52084,-33.87593 -111.98589,-43.57062 -174.32841,-27.49627 -31.62158,8.15328 -66.04249,25.67308 -93.56638,47.6241 -10.75278,8.57562 -31.47171,29.30889 -40.36505,40.39301 -21.79758,27.16714 -40.71076,63.22116 -50.15434,95.60869 -7.26798,24.92615 -10.48061,47.72935 -10.48061,74.39131 0,33.10545 4.62559,59.09893 15.61943,87.77329 28.13635,73.38582 91.38724,124.29379 167.38057,134.71754 15.16175,2.07969 45.09189,1.85425 60.80857,-0.45803 z m -69.46188,-67.06892 c -16.63362,-2.96823 -29.6141,-13.19387 -35.39488,-27.88305 -2.76837,-7.03452 -3.76657,-23.24517 -1.99058,-32.32678 3.15848,-16.1511 13.05565,-33.63303 26.7355,-47.22443 33.46492,-33.24855 82.38642,-37.21637 101.6186,-8.24188 8.12157,12.23567 10.26813,29.20615 5.81665,45.98592 -6.52909,24.6113 -27.31298,49.31012 -51.83539,61.59931 -13.41273,6.72167 -32.93302,10.23529 -44.9499,8.09091 z m 151.37081,-54.99279 c -17.88767,-4.50841 -28.08697,-21.39822 -24.83025,-41.11837 6.73631,-40.78994 57.46574,-73.38947 89.18884,-57.31416 21.72941,11.01112 23.66375,41.25154 4.3239,67.59768 -8.72893,11.89119 -24.89772,23.70791 -38.89999,28.4295 -8.80768,2.96997 -22.99586,4.11586 -29.7825,2.40535 z M 372.70257,555.03491 c -29.42687,-3.51917 -51.031,-23.56791 -58.72689,-54.49886 -1.80687,-7.26206 -2.23001,-11.8015 -2.23337,-23.95956 -0.007,-23.60292 4.19967,-40.52502 15.90799,-64 8.55199,-17.14657 17.48071,-29.48444 31.49256,-43.51698 18.34431,-18.37139 39.3708,-31.06473 60.66279,-36.6211 12.45973,-3.2515 30.2163,-3.70371 40.33721,-1.02728 25.24625,6.67627 42.69746,24.83607 50.12989,52.16536 3.25194,11.9575 3.26024,36.85435 0.0172,51.5 -15.47453,69.8826 -80.7109,126.76029 -137.58735,119.95842 z"
       id="path4799"
       inkscape:connector-curvature="0" />
  </g>
</svg>
